<?xml version="1.0" standalone="no"?>
<!DOCTYPE svg PUBLIC "-//W3C//DTD SVG 20010904//EN"
 "http://www.w3.org/TR/2001/REC-SVG-20010904/DTD/svg10.dtd">
<svg version="1.0" xmlns="http://www.w3.org/2000/svg"
 width="700.000000pt" height="700.000000pt" viewBox="0 0 700.000000 700.000000"
 preserveAspectRatio="xMidYMid meet">
<metadata>
Created by potrace 1.14, written by Peter Selinger 2001-2017
</metadata>
<g transform="translate(0.000000,700.000000) scale(0.100000,-0.100000)"
fill="#000000" stroke="none">
<path d="M0 3513 l0 -3488 3495 0 3495 0 1 30 c0 17 1 1585 1 3485 l1 3455
-3496 3 -3497 2 0 -3487z m6555 12 l0 -3060 -3062 -1 -3063 0 0 3063 0 3063
3062 -2 3063 -3 0 -3060z"/>
<path d="M2057 6354 c-1 -1 -34 -4 -72 -7 -392 -32 -795 -258 -1039 -582 -229
-305 -334 -684 -292 -1061 42 -377 243 -748 531 -979 28 -22 52 -42 55 -45 15
-16 156 -103 220 -135 122 -62 309 -124 415 -139 22 -3 58 -8 80 -11 70 -10
217 -12 305 -4 108 10 209 29 215 40 5 7 -39 196 -47 204 -2 2 -29 -2 -60 -9
l-57 -13 13 26 c7 14 29 59 48 98 l36 72 -94 48 c-59 29 -97 44 -103 38 -5 -6
-25 -41 -44 -80 l-35 -69 -47 99 c-26 55 -72 151 -101 213 -30 62 -54 117 -54
121 0 4 37 7 83 7 l82 -1 0 110 0 110 -122 0 c-117 0 -123 1 -124 20 0 11 -2
27 -3 35 -2 8 -6 49 -10 90 -4 41 -9 98 -12 125 -7 60 -7 57 -5 73 1 9 165 12
787 12 l786 0 -6 -52 c-4 -29 -11 -71 -16 -93 -5 -22 -10 -45 -10 -51 0 -9
129 -50 192 -61 31 -5 60 174 60 372 1 155 -13 250 -58 407 -164 573 -672
1002 -1259 1063 -57 6 -234 13 -238 9z m-117 -240 c0 -3 -58 -125 -129 -270
l-130 -264 -301 0 -301 0 45 58 c86 110 181 199 302 284 60 42 251 138 275
138 9 0 19 3 23 7 8 8 159 48 193 51 13 1 23 -1 23 -4z m547 -30 c170 -48 354
-153 501 -284 52 -47 182 -198 182 -212 0 -4 -136 -8 -303 -8 l-303 0 -64 138
c-35 75 -92 197 -127 270 l-63 134 45 -6 c24 -4 84 -18 132 -32z m-311 -191
c26 -54 68 -144 95 -201 27 -57 49 -105 49 -108 0 -2 -88 -4 -195 -4 -107 0
-195 2 -195 5 0 8 194 405 197 405 2 0 24 -44 49 -97z m-593 -532 l48 -1 -6
-57 c-3 -32 -8 -74 -10 -93 -2 -19 -7 -75 -11 -125 -3 -49 -8 -93 -11 -97 -2
-5 -166 -8 -365 -8 l-361 0 7 53 c10 75 41 203 66 269 21 56 22 57 63 60 34 2
284 2 580 -1z m822 -3 c4 -4 13 -93 21 -203 3 -44 10 -99 14 -122 4 -23 5 -45
2 -48 -3 -3 -146 -5 -318 -5 -246 0 -313 3 -309 13 2 6 6 46 9 87 16 198 19
236 22 250 1 8 3 18 3 22 1 4 34 8 74 10 89 4 478 1 482 -4z m867 3 c23 -1 29
-8 48 -58 26 -69 57 -198 66 -270 l6 -53 -366 0 -366 0 -1 33 c0 17 -2 41 -4
52 -2 11 -6 54 -9 95 -4 41 -10 103 -13 137 l-5 62 43 3 c34 2 454 1 601 -1z
m-1679 -608 c5 -7 9 -41 22 -183 3 -30 7 -80 10 -110 l5 -55 -334 0 c-207 0
-339 4 -345 10 -21 22 -65 194 -77 298 l-5 47 360 0 c198 0 362 -3 364 -7z
m88 -572 c4 0 14 -18 22 -38 8 -21 44 -99 80 -173 35 -74 79 -166 97 -205 18
-38 41 -87 52 -108 l19 -39 -38 6 c-73 11 -98 17 -187 47 -182 61 -353 167
-493 308 -61 60 -163 188 -163 203 0 4 595 3 611 -1z"/>
<path d="M3718 3454 l-1725 -1725 74 -75 c41 -40 77 -74 80 -74 3 0 782 776
1731 1726 l1725 1725 -74 75 c-40 40 -76 74 -79 74 -4 0 -783 -776 -1732
-1726z"/>
<path d="M2230 4724 c0 -10 35 -109 73 -204 14 -36 80 -209 147 -385 184 -485
220 -578 229 -600 5 -11 19 -47 32 -80 12 -33 24 -62 25 -64 2 -2 57 51 121
118 65 66 122 121 128 121 5 0 54 -35 109 -77 56 -42 138 -105 183 -140 45
-34 86 -64 91 -65 5 -2 69 71 141 162 73 91 145 181 161 200 l30 35 -23 20
c-37 32 -85 71 -199 163 -60 47 -108 89 -108 93 0 4 56 64 125 134 69 70 123
130 120 133 -3 3 -125 43 -272 89 -641 202 -1071 338 -1095 348 -10 4 -18 3
-18 -1z m502 -383 c67 -22 203 -65 301 -96 97 -30 177 -59 177 -63 0 -4 -20
-27 -45 -52 l-44 -43 41 -39 c24 -22 38 -42 32 -46 -6 -4 -22 -23 -36 -42
l-27 -35 130 -104 c71 -56 129 -106 129 -109 -1 -9 -48 -62 -55 -62 -8 0 -277
201 -286 214 -4 4 -22 -12 -41 -37 l-35 -46 -39 40 -38 39 -38 -37 c-21 -20
-39 -35 -41 -32 -3 2 -14 31 -26 64 -12 33 -26 69 -31 80 -5 11 -40 103 -79
205 -38 102 -74 197 -80 213 -6 15 -7 27 -2 27 5 0 65 -18 133 -39z"/>
<path d="M4421 2395 l1 -925 577 0 578 0 0 109 0 109 -441 1 c-243 0 -448 0
-456 1 -13 0 -15 97 -15 812 l0 813 -122 3 -122 3 0 -926z"/>
</g>
</svg>
